<?xml version="1.0" encoding="UTF-8"?>
<svg version="1.1" xmlns="http://www.w3.org/2000/svg" width="512" height="512">
<path d="M0 0 C1.72949959 -0.00461121 3.45899526 -0.0109656 5.18848276 -0.01890898 C9.93232948 -0.03559525 14.67585399 -0.02735909 19.41970181 -0.0149641 C24.53907524 -0.0059131 29.65839331 -0.0198836 34.77775574 -0.03088379 C44.80315337 -0.04867302 54.82843123 -0.0448272 64.85383356 -0.03323323 C73.00146809 -0.02420078 81.14906905 -0.02297409 89.29670715 -0.02732849 C90.45618981 -0.02794142 91.61567247 -0.02855436 92.81029096 -0.02918586 C95.16573585 -0.03046476 97.52118073 -0.03176161 99.8766256 -0.03307623 C121.96518238 -0.04448321 144.05367276 -0.03136644 166.14221865 -0.00987476 C185.0964326 0.00799631 204.05054856 0.00489224 223.00476074 -0.0135498 C245.01411792 -0.0349544 267.0234169 -0.04338456 289.03278303 -0.03110075 C291.37957731 -0.02982655 293.7263716 -0.02856907 296.07316589 -0.02732849 C297.8051808 -0.02640284 297.8051808 -0.02640284 299.5721859 -0.02545848 C307.71031364 -0.02200436 315.84840447 -0.02783529 323.98652649 -0.0372467 C333.90378925 -0.04846348 343.82092536 -0.04543333 353.7381736 -0.02412373 C358.79840702 -0.01360907 363.85842925 -0.00949869 368.91866112 -0.02272034 C373.55113381 -0.03464128 378.1831996 -0.02808649 382.81563538 -0.00681013 C384.49116272 -0.00234282 386.16672445 -0.00461323 387.84222966 -0.01431328 C405.28048903 -0.10752296 405.28048903 -0.10752296 411.68517065 5.91976881 C417.04811131 11.87136762 417.47830728 17.23091289 417.44563293 24.85626221 C417.44945848 25.80156839 417.45328403 26.74687457 417.4572255 27.72082639 C417.46754957 30.8904788 417.46356441 34.05994987 417.45959473 37.22961426 C417.4639416 39.50143603 417.46912466 41.77325634 417.4750824 44.04507446 C417.48848818 50.21875599 417.48904916 56.39237635 417.4865191 62.5660696 C417.48545018 67.72004797 417.49033086 72.87401392 417.49512452 78.02798963 C417.50686072 90.88487803 417.50599157 103.74172249 417.49956771 116.5986115 C417.49440206 127.75347311 417.50564461 138.90824729 417.52466593 150.06309161 C417.54406051 161.52502177 417.55200613 172.9868945 417.54854268 184.44884419 C417.54672999 190.88050591 417.5493644 197.31208761 417.56325722 203.74373627 C417.57583794 209.79464913 417.57388894 215.84538726 417.56084633 221.89629745 C417.55848133 224.1146259 417.56121247 226.33296664 417.56946945 228.55128098 C417.57994514 231.5849468 417.57182922 234.6180273 417.55915833 237.65167236 C417.56653261 238.5247462 417.57390689 239.39782003 417.58150464 240.29735065 C417.50309493 249.25170152 415.28368543 256.09769195 409.11462402 262.62512207 C405.92352225 265.7387072 402.59807926 268.64067411 399.18493652 271.50793457 C396.93096486 273.41995908 394.68218925 275.33801959 392.43493652 277.25793457 C391.8339917 277.77090088 391.23304688 278.28386719 390.6138916 278.81237793 C385.58753764 283.12154471 380.70376254 287.57064439 375.84118652 292.06262207 C371.32194805 296.22297984 366.68315044 300.23478993 362.00524902 304.21496582 C355.16866671 310.03822823 348.45063326 315.954226 341.85681152 322.05090332 C339.00171326 324.67642497 336.09728408 327.23461297 333.16540527 329.77355957 C330.87360497 331.78057995 328.624969 333.83196308 326.37243652 335.88293457 C322.82228724 339.0682679 319.25573706 342.23009934 315.62243652 345.32043457 C314.38300293 346.38197754 314.38300293 346.38197754 313.11853027 347.46496582 C304.14657565 353.71307803 295.91985609 354.07506561 285.26125717 354.02435493 C282.56986951 354.01162921 279.87949301 354.02310031 277.18814087 354.04039001 C272.44632911 354.06698732 267.70476891 354.07268944 262.96289062 354.07128906 C255.36763495 354.06905338 247.77268956 354.08328407 240.17755508 354.12687492 C237.53465484 354.13667386 234.89224881 354.12801885 232.24935913 354.11817932 C230.62094809 354.12432588 228.9925397 354.1312384 227.36413574 354.13903809 C226.27295441 354.12745918 226.27295441 354.12745918 225.159729 354.11564636 C218.73945476 354.17883674 214.25202748 355.71645574 209.37243652 359.94543457 C205.59774401 364.36721722 204.93496336 367.23114255 204.91369629 373.06140137 C204.90846954 373.71077164 204.9032428 374.36014191 204.89785767 375.02919006 C204.88763838 376.43579895 204.88184087 377.84244543 204.87997627 379.24909019 C204.87630092 381.48258796 204.85954014 383.71564628 204.83921814 385.9490509 C204.78393676 392.2979409 204.75323084 398.64689657 204.7286377 404.99597168 C204.71267007 408.88461021 204.68235051 412.77293962 204.64387321 416.66141701 C204.63229795 418.1360118 204.62629352 419.61066213 204.62619209 421.08530235 C204.62450312 439.11496998 204.62450312 439.11496998 199.35290527 445.84777832 C198.69935059 446.37500488 198.0457959 446.90223145 197.37243652 447.44543457 C196.40370605 448.26334473 196.40370605 448.26334473 195.41540527 449.09777832 C190.15264873 452.4250202 184.93022354 452.79875354 178.84854126 452.76863098 C178.02418166 452.77245653 177.19982206 452.77628208 176.35048187 452.78022355 C173.59617869 452.79051843 170.84208534 452.78656808 168.08776855 452.78259277 C166.10973925 452.7869412 164.13171164 452.79212479 162.15368652 452.79808044 C156.78588827 452.81146793 151.41816045 452.81204936 146.05034876 452.80951715 C141.56726384 452.80844721 137.08419316 452.81333141 132.60111129 452.81812257 C122.02341069 452.82921701 111.4457456 452.82965558 100.86804199 452.8236084 C89.96057472 452.81756851 79.05323644 452.8298802 68.14579117 452.85117847 C58.77661223 452.86879949 49.40747432 452.87479501 40.03827941 452.87154073 C34.44447121 452.86972844 28.85075501 452.87235858 23.25696182 452.88625526 C17.99561631 452.89883698 12.73447172 452.89688614 7.47312927 452.88384438 C5.54464017 452.88147976 3.61613691 452.88420914 1.68766403 452.8924675 C-0.95002315 452.90294647 -3.58703757 452.89482514 -6.22470093 452.88215637 C-6.98327703 452.88953066 -7.74185314 452.89690494 -8.5234164 452.90450269 C-14.67039235 452.84262247 -20.28208608 451.66292048 -25.09240723 447.57043457 C-25.64025879 446.88980957 -26.18811035 446.20918457 -26.75256348 445.50793457 C-27.31846191 444.82730957 -27.88436035 444.14668457 -28.46740723 443.44543457 C-31.15503477 439.58148308 -30.94464833 436.09946046 -30.95487118 431.52654839 C-30.9578226 430.80822441 -30.96077402 430.08990042 -30.96381488 429.34980905 C-30.97253002 426.92422485 -30.97408871 424.4986882 -30.97569275 422.0730896 C-30.98042208 420.32387336 -30.98557276 418.57465821 -30.99111038 416.82544434 C-31.00503911 412.00393154 -31.01260646 407.18242631 -31.01908338 402.36089849 C-31.02544809 398.22899575 -31.03551906 394.09710547 -31.04564404 389.96521048 C-31.07899047 376.35056417 -31.10049325 362.73591028 -31.11884388 349.1212365 C-31.1236377 345.57705854 -31.12862116 342.03288089 -31.13364911 338.48870325 C-31.16461829 316.48863926 -31.19130895 294.48857265 -31.20806789 272.48849297 C-31.21201752 267.39113231 -31.21602049 262.2937717 -31.22009277 257.19641113 C-31.22110113 255.92945715 -31.2221095 254.66250317 -31.22314841 253.35715665 C-31.24015877 232.82891293 -31.28127123 212.30078969 -31.33211576 191.77260481 C-31.38386633 170.70564554 -31.41300676 149.63874827 -31.42026478 128.57172596 C-31.42493018 116.73975609 -31.43971457 104.90798352 -31.48000908 93.07607651 C-31.51428113 83.00024039 -31.52825978 72.92463717 -31.51558494 62.84874611 C-31.50975155 57.70729487 -31.51367015 52.56633637 -31.54375458 47.42495918 C-31.57107904 42.71685698 -31.57064705 38.00959846 -31.54824413 33.3014778 C-31.54501663 31.59952191 -31.55191622 29.8975099 -31.57004135 28.19564746 C-31.7287521 12.32991684 -31.7287521 12.32991684 -26.59096438 6.17090857 C-18.94596364 -0.98795793 -9.89152896 -0.05726529 0 0 Z M70.18493652 102.50793457 C68.14088226 105.57401596 67.93456766 106.17649413 67.93046093 109.62689781 C67.92462874 110.4692858 67.91879654 111.31167378 67.91278762 112.17958868 C67.91656694 113.10515809 67.92034626 114.03072751 67.92424011 114.98434448 C67.92041457 115.96751605 67.91658902 116.95068761 67.91264755 117.96365225 C67.90229097 121.27322581 67.90631476 124.58262674 67.91027832 127.89221191 C67.9059333 130.25889752 67.90075086 132.62558171 67.89479065 134.99226379 C67.882762 140.76276126 67.88025209 146.53320458 67.88259091 152.30371307 C67.88437253 156.99372643 67.8826278 161.68372566 67.87836647 166.37373734 C67.87777128 167.04074931 67.87717609 167.70776128 67.87656287 168.39498574 C67.87535114 169.74994949 67.874137 171.10491323 67.87292049 172.45987697 C67.86203824 185.17354066 67.86421055 197.88717784 67.87030534 210.60084303 C67.87547386 222.23382227 67.86422202 233.86671777 67.84520712 245.49968044 C67.82583823 257.44064854 67.81757113 269.381577 67.82133037 281.32256091 C67.82324402 288.02798952 67.82073904 294.73334685 67.80661583 301.43876266 C67.79407178 307.7440748 67.79594919 314.04921897 67.80902672 320.35452843 C67.81139959 322.67128874 67.80863255 324.98806075 67.80040359 327.30480766 C67.78999454 330.46258777 67.79799007 333.61979816 67.81071472 336.77755737 C67.80334044 337.69866535 67.79596615 338.61977332 67.7883684 339.56879365 C67.82905159 344.35378053 68.02096419 347.64712611 71.18493652 351.50793457 C73.51651193 352.67372227 74.8940669 352.64346643 77.49189758 352.66183472 C78.39614975 352.67043518 79.30040192 352.67903564 80.23205566 352.68789673 C81.22688965 352.69215668 82.22172363 352.69641663 83.2467041 352.70080566 C84.29235031 352.70898315 85.33799652 352.71716064 86.41532898 352.72558594 C89.88670269 352.75046385 93.35803547 352.7669613 96.82946777 352.78137207 C98.0129096 352.78669575 99.19635143 352.79201942 100.41565514 352.79750443 C106.67834196 352.82424521 112.94100877 352.843618 119.20373535 352.85803223 C125.68057345 352.87469081 132.15690378 352.91947678 138.63354969 352.97040367 C143.60662946 353.00401641 148.57958777 353.01560311 153.55277061 353.02125931 C155.94063896 353.02798726 158.32849889 353.04324905 160.7162571 353.06715012 C164.05625752 353.09867777 167.39487593 353.09885658 170.73498535 353.09143066 C171.72374664 353.107836 172.71250793 353.12424133 173.73123169 353.1411438 C178.14110371 353.10095209 180.52926858 352.93022298 184.30081177 350.50112915 C186.7287098 346.64407499 186.86453547 343.45262585 186.78088379 339.0333252 C186.78494232 338.19206589 186.78900085 337.35080658 186.79318237 336.48405457 C186.79869109 334.66272468 186.79271501 332.84133154 186.77652168 331.02006531 C186.75109618 328.13621456 186.75590088 325.2537927 186.76841736 322.36987305 C186.78916015 316.2490696 186.76948085 310.12870885 186.74743652 304.00793457 C186.7263315 296.91428751 186.72175921 289.82110003 186.74793816 282.72746277 C186.75129953 279.8882124 186.73007569 277.04983965 186.70753479 274.21069336 C186.71004618 272.46797495 186.71360634 270.72525762 186.71838379 268.98254395 C186.7054982 268.1948613 186.69261261 267.40717865 186.67933655 266.59562683 C186.71035342 263.20182523 187.13255383 260.62628811 188.50892639 257.51651001 C192.82813084 254.2745761 197.21020783 254.83171749 202.46765137 254.89611816 C203.61927261 254.89045334 204.77089386 254.88478851 205.95741272 254.87895203 C209.7705623 254.86542949 213.58276563 254.88641222 217.39587402 254.90637207 C220.04379937 254.90087419 222.69172046 254.89275169 225.33963013 254.8821106 C232.31775204 254.85762006 239.29560264 254.86341306 246.27374268 254.87591553 C256.7719137 254.89449438 267.27003217 254.88960057 277.76816523 254.85588133 C282.333714 254.84254004 286.8988043 254.85470022 291.46432495 254.87203979 C293.85736187 254.86909179 296.25039806 254.8654371 298.64343262 254.86096191 C299.72831467 254.87025223 300.81319672 254.87954254 301.93095398 254.88911438 C307.4037824 254.86014948 311.50810343 254.71005486 316.18493652 251.50793457 C317.52170362 248.83440037 317.32005839 246.78458755 317.33210754 243.7895813 C317.33926285 242.57256027 317.34641815 241.35553925 317.35379028 240.10163879 C317.35663065 238.74569728 317.35934236 237.38975548 317.36193848 236.03381348 C317.36820218 234.61145359 317.37484889 233.18909534 317.3818512 231.76673889 C317.39926766 227.89688316 317.40981437 224.02703978 317.41805673 220.15715456 C317.42320474 217.74061524 317.42928051 215.32407978 317.43556786 212.90754318 C317.45462039 205.35021518 317.46885228 197.79289697 317.47717983 190.23554957 C317.4869583 181.50515711 317.51329327 172.77501779 317.55368072 164.04471457 C317.58381137 157.30071628 317.59864572 150.55679069 317.60196084 143.81272638 C317.60431452 139.78274779 317.61331603 135.75303961 317.63842201 131.72313309 C317.66165519 127.93261911 317.66595549 124.14255449 317.65566063 120.35198784 C317.65516401 118.96040161 317.66152149 117.56879363 317.67521667 116.1772747 C317.69286088 114.27834996 317.68346851 112.37923122 317.67268372 110.48025513 C317.67626625 108.88576255 317.67626625 108.88576255 317.67992115 107.259058 C317.05783549 103.80150733 315.91856277 102.64872713 313.18493652 100.50793457 C310.48117822 99.6066818 308.93318278 99.38137589 306.15967751 99.37650681 C304.92744609 99.37074509 304.92744609 99.37074509 303.67032111 99.36486697 C302.76809738 99.36573345 301.86587365 99.36659994 300.93630981 99.36749268 C299.97763956 99.36452155 299.01896931 99.36155043 298.03124845 99.35848927 C294.80463704 99.34978687 291.57806266 99.34829273 288.35144043 99.34680176 C286.04386821 99.34217473 283.73629675 99.33715022 281.4287262 99.33175659 C275.14984304 99.3186207 268.87097058 99.31218547 262.59207582 99.30774593 C258.67212434 99.30481751 254.7521758 99.30071317 250.8322258 99.29624176 C239.98049083 99.28413214 229.12875909 99.27375001 218.27701759 99.27036667 C217.58249212 99.2701471 216.88796665 99.26992754 216.17239495 99.26970132 C215.47620377 99.26948304 214.78001259 99.26926476 214.06272471 99.26903987 C212.65196458 99.2685964 211.24120446 99.26814984 209.83044434 99.2677002 C209.13065792 99.26747877 208.43087151 99.26725734 207.70987944 99.2670292 C196.36789765 99.26308019 185.02598008 99.24562274 173.6840231 99.22234067 C162.04138254 99.19863411 150.3987774 99.18642321 138.75611246 99.18499875 C132.21834829 99.1839489 125.68067469 99.17800281 119.14293289 99.16017914 C112.99521826 99.143745 106.84766273 99.1415203 100.69993401 99.15031815 C98.441222 99.15109098 96.1825016 99.14671351 93.92381096 99.13685989 C90.84485937 99.12421357 87.76647758 99.12997746 84.68753052 99.14044189 C83.78976823 99.13238549 82.89200595 99.12432909 81.96703875 99.11602855 C77.22657331 99.15381591 74.00343379 99.37857229 70.18493652 102.50793457 Z " fill="#1B6BE7" transform="translate(62.8150634765625,29.4920654296875)"/>
</svg>
